<svg id="Capa_1" enable-background="new 0 0 512 512" height="512" viewBox="0 0 512 512" width="512" xmlns="http://www.w3.org/2000/svg"><g><g><path d="m467.169 166.231-7.74 13.407c-.75 1.3-2.094 2.076-3.595 2.076s-2.845-.776-3.595-2.076l-44.109-76.398c-.534-.925-1.033-1.861-1.51-2.804-33.796-23.697-74.95-37.613-119.36-37.613-85.398 0-158.772 51.432-190.87 125.005h210.907c17.864 0 33.776 11.988 38.693 29.152l.208.725h22.393c6.955 0 13.759 2.869 18.668 7.873 4.795 4.887 7.367 11.257 7.24 17.937-.26 13.691-11.616 24.83-25.315 24.83h-178.871l-107.726 40.713c2.121 11.473 5.173 22.619 9.093 33.349h90.718c2.289 0 4.151 1.862 4.151 4.151v106.627c29.846 16.533 64.176 25.957 100.712 25.957 114.963 0 208.16-93.196 208.16-208.16-.001-38.194-10.298-73.98-28.252-104.751z" fill="#01c0fa"/><path d="m287.261 62.823c-55.509 0-103.202 51.432-124.065 125.005h144.103c17.864 0 33.776 11.988 38.693 29.152l.208.725h22.393c6.955 0 13.759 2.869 18.668 7.873 4.795 4.887 7.367 11.257 7.24 17.937-.26 13.691-11.616 24.83-25.315 24.83h-178.873l-38.136 14.414c.756 20.85 3.5 40.883 7.957 59.651h22.264c2.289 0 4.151 1.862 4.151 4.151v63.419c24.771 42.453 60.712 69.165 100.712 69.165 74.726 0 135.304-93.196 135.304-208.16s-60.578-208.162-135.304-208.162z" fill="#80d261"/><g><ellipse cx="287.261" cy="270.983" fill="#01c0fa" rx="52.04" ry="208.16"/></g><g fill="#0290cf"><path d="m75.847 268.343h-4.214c-.01.818-.029 1.635-.03 2.454z"/><path d="m471.492 158.743-8.719 15.102c8.491 15.282 15.054 31.776 19.336 49.162h-55.56c-3.484-23.385-9.509-45.633-17.871-65.951h30.523l-8.66-15h-28.645c-3.858-7.814-8.081-15.288-12.673-22.352-9.471-14.572-20.086-26.826-31.543-36.615 21.584 8.116 41.393 19.867 58.72 34.475l-8.27-14.324c-2.736-4.738-4.715-9.73-5.947-14.834-34.083-21.546-73.615-33.083-114.922-33.083-57.605 0-111.762 22.433-152.495 63.165-20.213 20.213-35.914 43.734-46.609 69.34h16.517c4.939-10.802 10.803-21.095 17.501-30.771h43.668c-4.047 9.834-7.542 20.123-10.471 30.771h15.588c3.146-10.802 6.881-21.096 11.148-30.771h53.987c-1.587 9.818-2.954 20.111-4.103 30.771h15.081c1.178-10.693 2.583-20.989 4.214-30.771h71.948c1.925 11.542 3.529 23.806 4.821 36.591 7.493 4.529 13.481 11.447 16.755 19.849-1.411-19.947-3.555-38.939-6.383-56.439h53.987c8.696 19.722 15.201 41.996 18.958 65.951h-27.044c1.035.779 2.016 1.637 2.931 2.57 3.454 3.52 5.746 7.811 6.715 12.43h19.357c1.135 10.732 1.733 21.746 1.733 32.976s-.598 22.244-1.733 32.976h-67.175c.424-10.813.644-21.829.644-32.976 0-.883-.01-1.759-.013-2.64h-15c.003.881.013 1.757.013 2.64 0 11.159-.223 22.175-.654 32.976h-87.771c-.431-10.801-.654-21.817-.654-32.976 0-.883.01-1.759.013-2.64h-15c-.003.881-.013 1.757-.013 2.64 0 11.148.22 22.163.644 32.976h-67.176c-.831-7.858-1.367-15.87-1.598-24.005l-14.795 5.592c.273 6.19.698 12.335 1.309 18.413h-50.027l-15.804 5.973c-1.121.424-2.297.639-3.495.639h-1.56c2.004 10.859 4.827 21.496 8.446 31.837h16.096c-2.908-7.608-5.376-15.431-7.35-23.449h55.56c1.186 7.96 2.673 15.784 4.44 23.449h15.42c-1.852-7.608-3.424-15.432-4.682-23.449h65.945c1.363 23.433 3.725 45.688 7 65.951h-49.546v39.243c9.153 13.741 19.336 25.363 30.292 34.725-10.549-3.967-20.67-8.81-30.292-14.418v17.331c30.668 16.236 65.026 24.853 100.712 24.853 57.605 0 111.762-22.433 152.495-63.166 40.732-40.732 63.165-94.89 63.165-152.495-.001-40.232-10.955-78.774-31.429-112.242zm-298.867-16.687h-38.994c22.026-26.203 50.612-46.71 83.21-58.967-11.457 9.789-22.071 22.044-31.543 36.615-4.592 7.064-8.815 14.538-12.673 22.352zm70.562-20.084c-1.594 6.374-3.071 13.084-4.432 20.084h-49.342c18.07-33.748 43.072-58.057 71.534-67.447-6.703 11.069-12.637 26.871-17.76 47.363zm10.859 20.084c1.15-5.7 2.38-11.195 3.693-16.446 4.539-18.155 9.976-32.891 15.722-42.613 4.761-8.055 9.791-12.674 13.8-12.674s9.039 4.62 13.8 12.674c5.747 9.722 11.183 24.458 15.722 42.613 1.313 5.25 2.542 10.745 3.693 16.446zm81.72 0c-1.361-7-2.838-13.71-4.432-20.084-5.123-20.492-11.057-36.295-17.759-47.363 28.462 9.39 53.464 33.7 71.534 67.447zm9.661 176.902h65.945c-3.757 23.954-10.262 46.229-18.958 65.951h-53.987c3.275-20.263 5.637-42.518 7-65.951zm-15.023 0c-1.394 23.539-3.812 45.816-7.17 65.951h-71.948c-3.358-20.134-5.776-42.412-7.17-65.951zm-140.992 80.951h49.342c1.361 7 2.838 13.71 4.432 20.084 5.123 20.492 11.058 36.295 17.76 47.363-28.461-9.39-53.464-33.699-71.534-67.447zm97.849 71.734c-4.009 0-9.039-4.62-13.8-12.674-5.747-9.722-11.183-24.458-15.722-42.613-1.313-5.251-2.542-10.745-3.693-16.446h66.429c-1.15 5.7-2.38 11.195-3.693 16.446-4.539 18.155-9.975 32.891-15.722 42.613-4.761 8.054-9.79 12.674-13.799 12.674zm26.314-4.286c6.702-11.069 12.636-26.871 17.759-47.363 1.594-6.374 3.071-13.084 4.432-20.084h49.342c-18.069 33.747-43.071 58.056-71.533 67.447zm44.105-8.481c11.457-9.789 22.071-22.044 31.543-36.615 4.592-7.064 8.815-14.538 12.673-22.352h38.994c-22.025 26.203-50.612 46.71-83.21 58.967zm94.666-73.967h-43.668c8.362-20.318 14.388-42.565 17.871-65.951h55.56c-5.9 23.955-16.11 46.229-29.763 65.951zm-23.931-80.951c1.088-10.817 1.649-21.832 1.649-32.976s-.561-22.158-1.649-32.976h56.78c1.782 10.733 2.725 21.745 2.725 32.976 0 11.23-.943 22.243-2.725 32.976z"/></g></g><g><g><path d="m182.397 341.407h-50.417l-1 1.21v29.019c0 1.153-.938 2.09-2.091 2.09h-33.659c-1.153 0-2.091-.938-2.091-2.09v-28.74l-1-1.489h-50.417c-2.845 0-5.151 2.306-5.151 5.151v140.675c0 2.845 2.306 5.151 5.151 5.151h140.675c2.845 0 5.151-2.306 5.151-5.151v-140.675c0-2.845-2.306-5.151-5.151-5.151z" fill="#ea9b58"/><g><path d="m68 487.233v-140.675c0-2.845 2.306-5.151 5.151-5.151h-31.429c-2.845 0-5.151 2.306-5.151 5.151v140.675c0 2.845 2.306 5.151 5.151 5.151h31.429c-2.845 0-5.151-2.306-5.151-5.151z" fill="#d88a55"/></g><g><path d="m92.139 341.407v30.229c0 1.707 1.384 3.091 3.091 3.091h33.66c1.707 0 3.091-1.384 3.091-3.091v-30.229z" fill="#fd4755"/></g><path d="m113 371.636v-30.229h-20.861v30.229c0 1.707 1.384 3.091 3.091 3.091h20.861c-1.707 0-3.091-1.384-3.091-3.091z" fill="#fb2b3a"/></g><g><path d="m130.31 414.042h-36.5c-4.142 0-7.5-3.358-7.5-7.5s3.358-7.5 7.5-7.5h36.5c4.142 0 7.5 3.358 7.5 7.5s-3.358 7.5-7.5 7.5z" fill="#ffbd86"/></g></g><g><g><path d="m368.591 216.704h-21.639c-4.942-17.248-20.818-29.876-39.655-29.876h-236.936c-6.097 0-11.625-3.586-14.11-9.153l-19.321-43.28c-.829-1.856-2.671-3.051-4.703-3.051h-27.076c-2.845 0-5.151 2.306-5.151 5.151v91.591c0 22.786 18.472 41.258 41.258 41.258h32.86l46.453-26.864c2.329-1.347 4.982-2.059 7.673-2.059h123.548c1.394 0 2.072 1.001 2.229 1.858.156.857-.124 2.034-1.428 2.526l-64.927 24.539h181.518c14.366 0 26.043-11.51 26.315-25.81.28-14.755-12.152-26.83-26.908-26.83z" fill="#f2fbff"/><g><path d="m32.451 228.085v-91.591c0-1.859.995-3.475 2.472-4.38-.796-.49-1.723-.771-2.697-.771h-27.075c-2.845 0-5.151 2.306-5.151 5.151v91.591c0 22.786 18.472 41.258 41.258 41.258h32.451c-22.787 0-41.258-18.472-41.258-41.258z" fill="#dff6fd"/></g><g><path d="m120.07 241.613-110.434 63.865c-2.891 1.672-1.705 6.092 1.635 6.092h65.509c1.315 0 2.618-.238 3.848-.703l172.318-65.128c3.396-1.284 2.476-6.32-1.154-6.32h-123.548c-2.87 0-5.689.757-8.174 2.194z" fill="#faea5e"/></g><path d="m41.575 305.478 110.434-63.865c2.484-1.437 5.304-2.193 8.174-2.193h-31.939c-2.87 0-5.689.756-8.174 2.193l-110.434 63.865c-2.891 1.672-1.705 6.092 1.635 6.092h31.939c-3.34 0-4.526-4.42-1.635-6.092z" fill="#ffd600"/></g><path d="m334.357 216.704c0-4.142-3.358-7.5-7.5-7.5h-16.714c-4.142 0-7.5 3.358-7.5 7.5s3.358 7.5 7.5 7.5h16.714c4.142 0 7.5-3.358 7.5-7.5z" fill="#01c0fa"/><g><path d="m274.576 224.204h-4.268c-4.142 0-7.5-3.358-7.5-7.5s3.358-7.5 7.5-7.5h4.268c4.142 0 7.5 3.358 7.5 7.5s-3.358 7.5-7.5 7.5z" fill="#01c0fa"/></g><g><path d="m234.741 224.204h-4.268c-4.142 0-7.5-3.358-7.5-7.5s3.358-7.5 7.5-7.5h4.268c4.142 0 7.5 3.358 7.5 7.5s-3.358 7.5-7.5 7.5z" fill="#01c0fa"/></g><g><path d="m194.906 224.204h-4.268c-4.142 0-7.5-3.358-7.5-7.5s3.358-7.5 7.5-7.5h4.268c4.142 0 7.5 3.358 7.5 7.5s-3.358 7.5-7.5 7.5z" fill="#01c0fa"/></g><g><path d="m155.072 224.204h-4.268c-4.142 0-7.5-3.358-7.5-7.5s3.358-7.5 7.5-7.5h4.268c4.142 0 7.5 3.358 7.5 7.5s-3.358 7.5-7.5 7.5z" fill="#01c0fa"/></g><g><path d="m115.237 224.204h-4.268c-4.142 0-7.5-3.358-7.5-7.5s3.358-7.5 7.5-7.5h4.268c4.142 0 7.5 3.358 7.5 7.5s-3.358 7.5-7.5 7.5z" fill="#01c0fa"/></g><g><path d="m75.402 224.204h-4.268c-4.142 0-7.5-3.358-7.5-7.5s3.358-7.5 7.5-7.5h4.268c4.142 0 7.5 3.358 7.5 7.5s-3.358 7.5-7.5 7.5z" fill="#01c0fa"/></g></g><g><g><path d="m460.294 180.138 44.108-76.398c21.586-37.389-5.397-84.124-48.569-84.124-43.173 0-70.155 46.736-48.569 84.124l44.108 76.398c1.983 3.434 6.94 3.434 8.922 0z" fill="#fd4755"/></g><g><path d="m450.06 103.74c-17.73-30.71-2.69-67.719 27.171-79.963-6.494-2.663-13.686-4.161-21.398-4.161-43.173 0-70.155 46.736-48.569 84.124l44.108 76.398c1.983 3.434 6.939 3.434 8.922 0l16.937-29.336z" fill="#fb2b3a"/></g><g><circle cx="455.833" cy="77.931" fill="#fff" r="20.09"/></g><path d="m451 77.931c0-8.393 5.151-15.576 12.462-18.581-2.353-.967-4.926-1.509-7.628-1.509-11.095 0-20.09 8.994-20.09 20.09 0 11.095 8.994 20.09 20.09 20.09 2.702 0 5.275-.541 7.628-1.509-7.311-3.004-12.462-10.188-12.462-18.581z" fill="#f2fbff"/></g></g></svg>